# xmcd
#
# Track frame offsets:
#	150
#	20522
#	37103
#	54501
#	69994
#	81771
#	96707
#	118805
#	139946
#	152839
#	168435
#	181226
#	205667
#	219734
#	232222
#	260181
#	279797
#	297766
#	312057
#	332972
#
# Disc length: 4594 seconds
#
# Revision: 1
# Processed by: cddbd v1.5.1PL0 Copyright (c) Steve Scherf et al.
# Submitted via: CDex 1.50Beta5
#
DISCID=3411f014
DTITLE=Various Artist - Les Etoiles De No将ウl
DYEAR=2003
DGENRE=Classical
TTITLE0=Roberto Alagna/Petit Papa No将ウl
TTITLE1=Barbara Hendricks/Douce Nuit
TTITLE2=Maurice Andr将ア/Vive Le Vent (Jingle Bells)
TTITLE3=Ch娼ヘur De King's College/J将アsus, Que Ma Joie Demeure
TTITLE4=Roberto Alagna/Il Est N将ア Le Divin Enfant
TTITLE5=Les Petits Chanteurs 宵「 La Croix De Bois/Entre Le B娼ヘuf Et L'将、ne Gris
TTITLE6=Roberto Alagna/Minuit, Chr将アtiens
TTITLE7=Maurice Andr将ア/Les Anges De Nos Campagnes
TTITLE8=Patricia Petibon/D'o将Viens-Tu Berg将イre ?
TTITLE9=Ch娼ヘur De Winchester/Hymne 宵「 La Vierge
TTITLE10=Barbara Hendricks/Mon Beau Sapin
TTITLE11=Taverner Choir/Puer Natus In Bethleem
TTITLE12=Thomas Hampson/The Christmas Song
TTITLE13=Les Petits Chanteurs 宵「 La Croix De Bois/La Marche Des Rois
TTITLE14=Barbara Hendricks/Ave Maria
TTITLE15=Ch娼ヘur De King's College/Alleluia
TTITLE16=Roberto Alagna/Panis Angelicus
TTITLE17=Les Petits Chanteurs De Vienne/L'enfant Au tambour/Paix Sur La Terre
TTITLE18=Ch娼ヘur De King's College/Messe De Minuit Pour No将ウl
TTITLE19=Les Petits Chanteurs De Vienne/We Wish You A Merry Christmas
EXTD=
EXTT0=
EXTT1=
EXTT2=
EXTT3=
EXTT4=
EXTT5=
EXTT6=
EXTT7=
EXTT8=
EXTT9=
EXTT10=
EXTT11=
EXTT12=
EXTT13=
EXTT14=
EXTT15=
EXTT16=
EXTT17=
EXTT18=
EXTT19=
PLAYORDER=
